PathFileType	4	(X/Y/Z)	26_1_21_p0_0-460_filt_butterworth.trc
DataRate	CameraRate	NumFrames	NumMarkers	Units	OrigDataRate	OrigDataStartFrame	OrigNumFrames
59.0	59.0	6	27	m	59.0	230	460
Frame#	Time	RHip			RKnee			RAnkle			RBigToe			RSmallToe			RHeel			LHip			LKnee			LAnkle			LBigToe			LSmallToe			LHeel			Neck			Head			Nose			RShoulder			RElbow			RWrist			RThumb			RIndex			RPinky			LShoulder			LElbow			LWrist			LThumb			LIndex			LPinky			
		X1	Y1	Z1	X2	Y2	Z2	X3	Y3	Z3	X4	Y4	Z4	X5	Y5	Z5	X6	Y6	Z6	X7	Y7	Z7	X8	Y8	Z8	X9	Y9	Z9	X10	Y10	Z10	X11	Y11	Z11	X12	Y12	Z12	X13	Y13	Z13	X14	Y14	Z14	X15	Y15	Z15	X16	Y16	Z16	X17	Y17	Z17	X18	Y18	Z18	X19	Y19	Z19	X20	Y20	Z20	X21	Y21	Z21	X22	Y22	Z22	X23	Y23	Z23	X24	Y24	Z24	X25	Y25	Z25	X26	Y26	Z26	X27	Y27	Z27	
230	3.8983050847457625	0.28863556773499704	0.7369380663139146	0.8193475010331355	0.2865466706907446	0.9581214704027001	1.2337881567822544	0.27717369431442024	1.2150423885453976	1.6458944305933814	0.23817691233595356	1.0090859173193625	1.709563399554567	0.28804999782774343	1.0276446795814536	1.7119421798765582	0.2554780143223757	1.3082203161327017	1.6829219207025414	0.07312887912105966	0.7588317995434319	0.8047255047613191	0.07716259118978734	0.9788064549465488	1.22360998583543	0.07522644260277003	1.1874844378993146	1.6414804581153921	0.0830695130949553	1.0315083930779159	1.702282405338897	0.029292216645482833	1.0658236611580432	1.6931286011341333	0.10737714169546078	1.2499553171541273	1.6694035106678027	0.1682146342283933	0.5597492873576952	0.3390107084380779	0.159557765043527	0.3104961206355225	0.1498899744465265	0.15260776853299235	0.36051855371430364	0.30415977102978514	0.33180095425437967	0.5106989420209601	0.39507893965042507	0.3810538840899278	0.533314513727166	0.6671815432210307	0.20861740049501215	0.4103784603457044	0.5768256686913766	0.1294521910772013	0.3563483725119302	0.5459318388719399	0.11097225406905994	0.32301848356622986	0.530398312658929	0.11760886961816604	0.35615972708263366	0.5771671054561707	0.03323504670822902	0.6147036061505489	0.35334285055269976	-0.03492629075162449	0.6996743509339103	0.6046682299852436	0.01903407749266908	0.5203847148158494	0.542969784900259	0.07777506333218874	0.41245449257646594	0.5033198691826616	0.08097790505414779	0.38814796825071796	0.49784608159295085	0.05824290647367615	0.41870838714894254	0.5526972059919325
231	3.915254237288136	0.2895171546294513	0.7329216614316955	0.8198250417030168	0.28804536855850627	0.9559030133306006	1.2338610354219575	0.2771686385656378	1.2150868197077624	1.6459193643752352	0.2381605955899852	1.009012735145613	1.7095367865270803	0.28796673155736474	1.027285154984088	1.7119853240364507	0.25547424268369945	1.3082520892789764	1.682874200072098	0.07317983697690807	0.7591173137864061	0.804721135588945	0.07716955054194018	0.9787907845362825	1.2236294852069545	0.07524957647629835	1.1876152761337786	1.6415332800071296	0.08302267164039494	1.031105198400196	1.7023149714326198	0.029353754579548356	1.0657941162151081	1.6931878817720039	0.1073647292944176	1.2500604189908857	1.6694374586447225	0.1677533531642956	0.5585819162727957	0.33923395984735677	0.15957569923642062	0.31057766433347844	0.15020043526251214	0.1528998335956024	0.3598301727087057	0.30661319202010484	0.33192580921024223	0.5113609938249084	0.39577751100009173	0.3798450363953193	0.5342829802780779	0.6686303809307609	0.2081887510847399	0.4103356317737804	0.5776158166251655	0.13097946810858138	0.35987159674443664	0.5433002101221962	0.11234942995631295	0.32287324432923703	0.5295759882799858	0.11876623178937556	0.3560987250431322	0.5758380367507936	0.033542285916208975	0.6113455160448752	0.35473989619199825	-0.03545188044107036	0.6996360556390208	0.6060558355348933	0.018819086168292615	0.5200120611574459	0.5432309008222747	0.07723107399291981	0.4129287284675995	0.49979201825853176	0.0785694690873526	0.39325893293195296	0.49567180495440566	0.05765074651918652	0.4160607439793027	0.5493155059888506
232	3.9322033898305087	0.2898299572346074	0.7310787753932768	0.820114882080739	0.2879756279954139	0.9554663673253596	1.2338910121329827	0.27716474350122117	1.2151794207256112	1.6459011218248256	0.23815576559165194	1.009008610133697	1.7095431274991988	0.2879069890443752	1.0271425964658685	1.711866951195669	0.25546265466931894	1.308334557191842	1.6828606080324175	0.07331732615037918	0.7594563634772133	0.8047150276664701	0.07716733945464645	0.9787866649163076	1.2236722945273608	0.07525873135818215	1.1877209463319536	1.6415902205923343	0.08296960773035215	1.0310103988564592	1.702352344252369	0.029412794659740112	1.0656604830713161	1.6931911138448823	0.10719884833606703	1.2499113621302789	1.6694389893134338	0.16781936480926835	0.5580315183505259	0.339464362055048	0.15925498573193173	0.309643865420808	0.15140604238205374	0.15373670686190555	0.3571703252096732	0.3087516005126856	0.3319693026549856	0.5116148264437037	0.3960477167786449	0.3789989712355273	0.5353762824721794	0.6701269489005242	0.20776816854154512	0.4091043617248792	0.5779281840451762	0.1334563385886316	0.36351933573631934	0.5393354772924625	0.115338313436797	0.32318352048725274	0.5273049913901872	0.12064307697925955	0.35593963934447936	0.574242605958945	0.033758972591692644	0.6085868458222867	0.35525691600918746	-0.03611426773973108	0.699372483092236	0.6065016292491243	0.018058637021779227	0.5198626687428469	0.5433168881165105	0.07573987130159093	0.41506388231011526	0.4958724024646928	0.07354002076363388	0.4006979570322349	0.49264985997603333	0.056971393799450654	0.41583675949438664	0.5457927056805871
233	3.9491525423728815	0.2898193561072294	0.7306468025632155	0.8202644735723263	0.28646103784761273	0.9573433610269482	1.2339409800275174	0.27716291689749745	1.215297610075441	1.6458646071594285	0.2381648252823296	1.0090106826756238	1.7095625502391605	0.2878876358008901	1.027211728014812	1.7113854547481666	0.2554480857975234	1.3084543928808239	1.6828149832993584	0.07337808428309002	0.7596024187412852	0.8047327840554039	0.07715873745119303	0.9787940486455646	1.2237183913740113	0.07525409137326303	1.1877685634707593	1.641630371749355	0.08291917161275003	1.0310630308024975	1.70239912045842	0.029424811787862312	1.065508763448859	1.693143181123425	0.10709272819940877	1.2498767748383124	1.669458985023161	0.1679687025621298	0.5580179417260634	0.3396354827491755	0.15838549417953068	0.3069786575008749	0.1534938086564769	0.15486478700268383	0.3533820355231537	0.31034859151152305	0.33196776800617916	0.5116074827013076	0.39603966021011516	0.3787204472309439	0.5361730718654323	0.671132792136446	0.2080618171383273	0.4061141017201494	0.5784307867469551	0.1360762130024043	0.36673965067438113	0.5369885130049418	0.11901768067945018	0.32390540103315446	0.5257727695051869	0.12202996743990774	0.35575049323121605	0.5728754803342851	0.03386136993781959	0.6073001942836098	0.3550077347162778	-0.03649514770254041	0.6990459417292322	0.6064553629928794	0.01686742037340512	0.5198776914802887	0.5427391975135616	0.07378952815512331	0.41795124392427785	0.4928070368669738	0.06747136347333729	0.4056579767693918	0.4905283236684561	0.05526245979762767	0.4177123473077424	0.5426777807328503
234	3.9661016949152543	0.2897959547051922	0.7310527489252097	0.8203027230654689	0.28464873366253696	0.9594608154937555	1.233865975459981	0.2771679571446345	1.215374114415756	1.6458261150581153	0.23817414325661257	1.0089313756421858	1.7095564233924931	0.2878669355517892	1.0273191562128365	1.7102543328811628	0.2554365121380046	1.3085427468960067	1.6826607499304178	0.07332977193897039	0.7594650206109792	0.8047947108834239	0.07714989383132324	0.9788189997226115	1.223744775321989	0.07524202988996224	1.1877874740454748	1.6416305606197799	0.08289197063090992	1.0311087978527278	1.702448943408781	0.029386703522966413	1.0654094591206928	1.6930595000950222	0.107076713178995	1.2500666839905028	1.6695048683390459	0.1680411037321876	0.5581609782875936	0.3397531366213955	0.15721260768270817	0.30332331793520056	0.15568543779284147	0.15571929976625395	0.35044078476227436	0.31126993342336645	0.33195578811045423	0.5115560807079099	0.39597473149962986	0.378729005674854	0.5364612889666627	0.6714673914951382	0.2091987422896227	0.4023781693985295	0.579824787201367	0.1378472644102547	0.36919949926929263	0.5371130373084844	0.12262551504552993	0.3251629384352392	0.52654765652694	0.12282713991619479	0.35583642198458465	0.5721656722578268	0.033843792587437665	0.6070765087899157	0.35464202545697654	-0.036615474174939794	0.6987731039457733	0.606384429180245	0.0156616179271895	0.519923206054812	0.5414255976671206	0.07243419659749534	0.4201729768954373	0.4912458461440739	0.06285770420956861	0.40704182724641064	0.4898082310026966	0.05285463635822893	0.420475739317076	0.5404277775856299
235	3.983050847457627	0.2898708328405176	0.7330236083948691	0.8201459791858129	0.28314285067474115	0.9602450326355985	1.2333824197943517	0.27718188802424276	1.215374780517326	1.645793566883143	0.23817054233324386	1.008775218657936	1.7094898948127624	0.28783094619492844	1.0275270998077448	1.708778151680302	0.2554304219320348	1.3085448631633017	1.6824157191418483	0.07321060322142896	0.7591586297497663	0.8048919052037885	0.07714614059620062	0.9788575172189355	1.2237463069772803	0.07522948571567985	1.1878117691778727	1.6415701586364928	0.08290153661001284	1.031090161867853	1.7024587749079378	0.029312611633044338	1.065386259200531	1.6930108232054846	0.10709440957338193	1.2504146369314846	1.6695692404140587	0.16802291106480308	0.5581844690179177	0.3398701414104606	0.156302034493427	0.3006070186050529	0.15736576078261275	0.1560418191020468	0.3492639581389561	0.3115958448173982	0.331943906643721	0.5115403591024533	0.39594904934745956	0.3786333568024673	0.5360183921519762	0.6710761237013532	0.21048336679738763	0.3997610226539787	0.581852121169566	0.13851682548984753	0.3707624735960019	0.5378963344956994	0.12587383218839868	0.326601747963642	0.5285538305956722	0.12396171350849461	0.35661432595983517	0.5723066554469993	0.03374335953180029	0.6072816866854605	0.35440364212253417	-0.03665519445757024	0.698590049001841	0.6064155071415165	0.014416128571437177	0.5199308948518611	0.5400770119742785	0.07193471562232179	0.421026226262117	0.49056264087437157	0.060895600139208014	0.4066830251536503	0.48982575728891053	0.05097320099914836	0.4224876450046414	0.5393434951157964
